# xmcd
#
# Track frame offsets:
#	150
#	15360
#	31121
#	49167
#	56895
#	68602
#	83637
#	94226
#	107330
#	124845
#	145235
#	159157
#	172707
#	181459
#	196331
#	208956
#
# Disc length: 2980 seconds
#
# Revision: 0
# Processed by: cddbd v1.5.2PL0 Copyright (c) Steve Scherf et al.
# Submitted via: EasyCDDAExtractor 16.0.6.1
#
DISCID=cb0ba210
DTITLE=Συλλογικός δίσκος - Τα μεγάλα τραγούδια-Μ. Χατζιδάκις 2
DYEAR=2010
DGENRE=Ποικίλη
TTITLE0=Γιαννάτου Σαβίνα - Ήταν καμάρι της αυγής [F.C.Lorca, απ. Ν. Γκάτσος]
TTITLE1=Μητσιάς Μανώλης - Ο Γιάννης ο φονιάς [Νίκος Γκάτσος]
TTITLE2=Αλεξάνδρα - Το πέλαγο είναι βαθύ [Μ. Χατζιδάκις]
TTITLE3=Ζωγράφος Γιώργος - Τέσσερις στρατηγοί [B. Brecht, απ. Οδ. Ελύτης]
TTITLE4=Ρωμανός Γιώργος - Ένας ευαίσθητος ληστής [Νίκος Γκάτσος]
TTITLE5=Μερκούρη Μελίνα - Αγάπη πού 'γινες δίκοπο μαχαίρι[Μ.Κακογιάννης-Ι.Γεωρ
TTITLE5=γακοπούλου]
TTITLE6=Βιτάλη Ελένη - Πού το πήγαν το παιδί [Νίκος Γκάτσος]
TTITLE7=Φαραντούρη Μαρία - Περιμπανού [Νίκος Γκάτσος]
TTITLE8=Αρλέτα - Ήσουν παιδί σαν τον Χριστό [Νίκος Γκάτσος]
TTITLE9=Μπάσης Δημήτρης - Πάμε μιά βόλτα στο φεγγάρι [Ν. Περγιάλης]
TTITLE10=Μητσιάς Μανώλης - Απόψε φθινοπώριασε [Νίκος Γκάτσος]
TTITLE11=Γιαννάτου Σαβίνα - Κάπου υπάρχει η αγάπη μου [Μ. Χατζιδάκις]
TTITLE12=Βουγιουκλάκη Αλίκη - Μέσ' σ' αυτή τη βάρκα [Μ. Χατζιδάκις]
TTITLE13=Μητσιάς Μανώλης - Κοίτα με στα μάτια [Ορχ. Εγχόρδων Δ. Πατρέων, Νίκος
TTITLE13=Γκάτσος]
TTITLE14=Αλεξάνδρα - Νυχτερινός άγγελος Μιχ. Μπουρμπούλης]
TTITLE15=Άνευ ερμηνευτού - The Concert [οργανικό, Μ. Χατζιδάκις]
EXTD=
EXTT0=
EXTT1=
EXTT2=
EXTT3=
EXTT4=
EXTT5=
EXTT6=
EXTT7=
EXTT8=
EXTT9=
EXTT10=
EXTT11=
EXTT12=
EXTT13=
EXTT14=
EXTT15=
PLAYORDER=
